<?xml version="1.0" standalone="no"?>
<!DOCTYPE svg PUBLIC "-//W3C//DTD SVG 20010904//EN"
 "http://www.w3.org/TR/2001/REC-SVG-20010904/DTD/svg10.dtd">
<svg version="1.0" xmlns="http://www.w3.org/2000/svg"
 width="1000.000000pt" height="1000.000000pt" viewBox="0 0 1000.000000 1000.000000"
 preserveAspectRatio="xMidYMid meet">
<metadata>
Created by potrace 1.14, written by Peter Selinger 2001-2017
</metadata>
<g transform="translate(0.000000,1000.000000) scale(0.100000,-0.100000)"
fill="#000000" stroke="none">
<path d="M2842 8659 c-11 -4 -25 -17 -31 -28 -16 -29 -15 -1421 1 -1455 6 -14
20 -28 31 -32 11 -3 483 -6 1048 -7 945 0 1030 1 1053 17 15 9 27 24 27 34 7
96 3 1422 -4 1439 -6 12 -24 27 -41 32 -38 11 -2053 11 -2084 0z m1197 -206
c13 -3 29 -19 36 -36 10 -25 9 -41 -7 -101 -10 -39 -20 -78 -22 -86 -9 -34
-89 -333 -117 -432 -17 -60 -32 -116 -34 -125 -6 -32 -76 -286 -80 -293 -3 -4
-18 -13 -35 -20 -25 -10 -34 -10 -55 4 -32 21 -39 53 -25 107 7 24 13 51 15
59 2 8 56 211 120 450 98 366 121 439 141 458 28 24 29 25 63 15z m-419 -193
c11 -11 20 -33 20 -49 0 -24 -24 -52 -146 -169 l-146 -140 67 -64 c203 -190
225 -214 225 -242 0 -15 -10 -37 -24 -51 -33 -33 -67 -25 -129 33 -27 26 -87
81 -131 123 -45 42 -102 96 -128 120 -26 24 -50 57 -54 72 -6 26 1 37 82 115
288 279 317 299 364 252z m642 -17 c44 -39 118 -109 250 -234 50 -48 79 -84
82 -101 5 -31 -7 -44 -204 -228 -68 -63 -128 -120 -134 -126 -40 -39 -89 -36
-119 6 -27 38 -9 65 140 206 l145 138 -54 49 c-123 113 -222 212 -234 235 -11
21 -10 30 1 53 27 51 71 52 127 2z"/>
<path d="M6263 8648 c-22 -11 -43 -61 -43 -104 0 -30 -20 -50 -72 -69 l-46
-17 -48 36 c-73 56 -91 51 -191 -46 -88 -86 -112 -120 -108 -150 2 -10 19 -40
39 -67 l36 -49 -27 -53 c-26 -50 -32 -54 -73 -62 -25 -4 -51 -9 -59 -11 -8 -1
-22 -13 -33 -25 -15 -20 -18 -42 -18 -161 0 -160 0 -161 101 -188 60 -16 63
-19 82 -65 l20 -48 -37 -53 c-55 -81 -52 -92 62 -207 115 -115 127 -119 204
-63 49 36 49 36 86 21 20 -8 45 -18 54 -21 11 -3 21 -25 29 -66 16 -82 36
-100 106 -97 57 2 61 0 39 -17 -45 -34 -13 -116 45 -116 57 0 90 70 52 112
-15 17 -15 18 13 19 16 1 39 0 50 0 30 -3 60 40 69 95 10 68 11 69 69 89 l53
18 48 -36 c75 -58 88 -54 205 63 81 81 100 106 100 129 0 16 -6 36 -12 43 -48
51 -69 100 -49 113 5 3 12 19 16 35 6 28 33 53 52 48 26 -6 95 16 108 35 16
25 19 280 4 309 -6 10 -33 21 -79 29 -52 9 -70 16 -70 28 0 9 -9 34 -19 56
l-18 40 38 54 c56 78 51 91 -85 220 -27 25 -55 52 -63 60 -23 23 -65 17 -119
-17 l-52 -32 -55 21 c-31 12 -56 24 -55 28 1 3 -4 32 -11 63 -18 83 -28 88
-186 87 -71 0 -140 -5 -152 -11z m258 -540 c45 -20 99 -73 125 -124 28 -56 26
-174 -3 -230 -63 -119 -220 -172 -337 -113 -157 78 -199 262 -91 395 77 93
191 120 306 72z"/>
<path d="M3583 7053 c-20 -30 -21 -36 -9 -71 17 -50 95 -53 120 -3 38 73 -65
141 -111 74z"/>
<path d="M4945 6969 c-68 -12 -151 -48 -202 -87 -62 -47 -86 -74 -127 -143
-129 -215 -65 -528 147 -725 70 -65 119 -92 200 -108 116 -24 230 13 333 106
218 199 281 535 140 744 -40 59 -125 138 -175 163 -93 47 -221 67 -316 50z"/>
<path d="M3592 6862 c-32 -25 -33 -79 -2 -104 41 -33 96 -18 112 32 8 23 -20
70 -48 80 -33 13 -35 13 -62 -8z"/>
<path d="M6372 6863 c-50 -42 -24 -123 39 -123 65 0 93 80 43 119 -33 26 -55
26 -82 4z"/>
<path d="M3596 6654 c-39 -38 -41 -68 -8 -106 31 -36 104 -15 113 32 6 30 -11
67 -36 78 -35 16 -51 15 -69 -4z"/>
<path d="M6380 6657 c-38 -19 -48 -61 -23 -95 40 -53 123 -33 123 31 0 38 -7
50 -37 66 -27 14 -32 14 -63 -2z"/>
<path d="M3589 6441 c-15 -15 -27 -34 -25 -42 9 -51 24 -66 74 -75 7 -1 27 10
44 25 l31 28 -19 38 c-27 55 -66 64 -105 26z"/>
<path d="M6378 6454 c-45 -23 -46 -90 -3 -118 45 -30 105 4 105 59 0 53 -54
84 -102 59z"/>
<path d="M3593 6245 c-12 -8 -23 -25 -25 -38 -4 -22 17 -76 30 -78 4 0 19 -3
33 -5 62 -10 94 63 49 112 -27 28 -56 31 -87 9z"/>
<path d="M6365 6235 c-14 -13 -25 -33 -25 -45 0 -28 43 -70 73 -70 24 0 66 32
68 53 4 42 -31 87 -68 87 -13 0 -35 -11 -48 -25z"/>
<path d="M4475 6051 c-27 -11 -79 -29 -114 -42 -123 -45 -194 -143 -195 -269
l-1 -65 854 -3 c651 -2 856 1 862 10 11 17 3 107 -14 155 -21 61 -76 128 -122
151 -22 11 -71 30 -110 42 -38 12 -80 27 -93 33 -15 7 -26 8 -30 1 -214 -311
-508 -393 -771 -215 -60 41 -158 140 -188 191 -20 35 -15 34 -78 11z"/>
<path d="M3590 6032 c-17 -13 -23 -29 -22 -53 2 -64 71 -91 117 -45 21 21 23
29 15 58 -17 57 -66 75 -110 40z"/>
<path d="M6372 6033 c-35 -30 -38 -68 -8 -97 31 -32 69 -33 96 -4 58 63 -23
156 -88 101z"/>
<path d="M3610 5843 c-28 -11 -43 -35 -42 -65 1 -41 28 -68 67 -68 65 0 91 74
41 117 -27 23 -39 26 -66 16z"/>
<path d="M6383 5840 c-28 -11 -41 -38 -37 -73 4 -38 27 -57 68 -57 64 0 91 79
40 119 -29 23 -38 24 -71 11z"/>
<path d="M3599 5632 c-44 -30 -41 -99 5 -120 44 -20 82 -1 96 47 8 30 6 36
-20 61 -32 30 -51 33 -81 12z"/>
<path d="M6368 5620 c-44 -45 -27 -103 34 -114 68 -12 109 84 51 121 -39 26
-53 25 -85 -7z"/>
<path d="M3904 5515 c-17 -17 -23 -32 -19 -47 2 -13 9 -70 15 -128 6 -58 13
-121 15 -140 2 -19 7 -69 10 -110 4 -41 8 -82 10 -90 3 -14 9 -77 20 -190 11
-110 16 -159 20 -190 2 -19 7 -64 10 -100 3 -36 8 -83 11 -105 12 -89 12 -95
-5 -96 -9 0 -53 0 -99 0 -75 1 -86 -2 -108 -24 -13 -13 -24 -31 -24 -39 0 -28
23 -66 43 -72 11 -3 553 -6 1204 -6 1298 0 1224 -4 1236 58 8 42 -40 86 -90
84 -21 -1 -53 -2 -71 -1 l-33 1 6 58 c3 31 9 93 14 137 6 44 13 107 16 140 3
33 8 71 10 85 3 23 9 73 20 185 14 129 26 245 30 278 3 20 7 54 10 75 23 189
22 221 -6 245 -20 16 -88 17 -1121 17 l-1099 0 -25 -25z m1213 -410 c99 -41
154 -125 156 -233 1 -79 -19 -128 -75 -182 -39 -39 -117 -70 -172 -70 -95 0
-189 59 -232 147 -30 60 -26 166 9 225 68 116 196 162 314 113z"/>
<path d="M4971 4978 c-54 -29 -80 -97 -57 -152 38 -92 178 -94 217 -3 17 40 5
105 -24 135 -29 29 -100 39 -136 20z"/>
<path d="M3582 5405 c-11 -14 -19 -33 -17 -43 2 -9 4 -20 4 -24 2 -17 44 -45
64 -43 12 1 28 3 34 4 7 0 20 15 28 32 15 28 15 33 -2 62 -26 44 -81 50 -111
12z"/>
<path d="M6374 5422 c-58 -38 -22 -140 45 -127 56 11 78 66 45 113 -15 22 -66
30 -90 14z"/>
<path d="M3585 5204 c-62 -66 36 -154 100 -90 21 21 23 29 15 56 -18 62 -74
78 -115 34z"/>
<path d="M6372 5213 c-35 -30 -38 -68 -8 -97 29 -30 56 -33 91 -10 49 32 19
124 -39 124 -13 0 -33 -8 -44 -17z"/>
<path d="M3609 5019 c-70 -26 -48 -131 27 -131 62 0 88 77 40 119 -30 25 -30
25 -67 12z"/>
<path d="M6382 5020 c-12 -5 -27 -21 -32 -36 -19 -50 11 -94 64 -94 65 0 91
79 40 119 -29 23 -38 24 -72 11z"/>
<path d="M3587 4803 c-39 -44 -15 -113 41 -118 51 -4 86 39 70 87 -17 48 -80
65 -111 31z"/>
<path d="M6360 4793 c-32 -42 -14 -95 36 -107 48 -12 104 46 83 86 -29 55 -84
65 -119 21z"/>
<path d="M3772 4784 c-25 -17 -30 -68 -9 -95 30 -40 100 -29 117 17 27 69 -46
122 -108 78z"/>
<path d="M6182 4780 c-12 -12 -22 -32 -22 -46 0 -30 41 -74 70 -74 29 0 70 44
70 75 0 57 -74 85 -118 45z"/>
<path d="M4105 3564 c-38 -7 -85 -16 -104 -19 -35 -7 -199 -59 -236 -75 -11
-5 -49 -21 -85 -36 -161 -65 -398 -194 -580 -317 -84 -56 -285 -206 -315 -234
-18 -18 -25 -18 -85 -6 -201 38 -450 38 -685 -2 -58 -10 -183 -48 -249 -75
-205 -86 -312 -208 -301 -347 4 -58 22 -95 72 -147 53 -55 116 -82 199 -86 66
-3 81 -1 103 18 20 16 20 19 5 62 -33 94 -10 202 59 271 53 53 157 102 267
124 81 17 379 28 400 15 4 -3 -41 -56 -101 -118 -267 -277 -441 -568 -478
-802 -15 -91 -7 -199 19 -252 28 -60 88 -115 135 -124 62 -11 192 36 325 118
l55 34 1 135 c2 122 6 163 20 211 3 9 6 25 8 35 18 94 120 319 203 447 68 106
175 246 189 246 15 0 144 -50 263 -102 l93 -42 19 25 c10 13 19 38 19 56 0 60
-67 112 -234 181 l-50 20 85 83 c287 280 630 489 891 543 90 19 195 23 210 8
34 -34 -49 -146 -293 -397 -91 -93 -185 -192 -210 -220 -24 -27 -53 -59 -64
-71 -11 -11 -33 -38 -50 -59 -16 -21 -35 -43 -40 -49 -25 -26 -140 -206 -172
-270 -44 -88 -79 -179 -88 -231 -14 -78 -15 -91 -15 -175 -2 -156 41 -277 133
-376 61 -66 128 -105 224 -129 210 -53 413 19 555 198 51 65 72 135 53 180
-22 53 -36 60 -89 46 -228 -57 -251 200 -64 716 38 104 124 312 174 420 47
101 121 291 133 341 26 110 15 165 -44 209 -32 25 -45 28 -123 30 -48 1 -118
-4 -157 -11z"/>
<path d="M5810 3569 c-155 -17 -282 -52 -440 -121 -14 -6 -27 -12 -30 -12 -3
-1 -21 -11 -41 -24 -20 -12 -39 -22 -43 -22 -13 0 -168 -101 -243 -158 -261
-201 -459 -471 -554 -754 -32 -96 -33 -98 -50 -193 -13 -74 -16 -240 -6 -318
30 -224 178 -422 385 -514 136 -60 343 -85 509 -62 405 56 788 356 993 779 39
79 96 249 104 308 3 23 9 59 12 80 3 21 6 70 7 109 2 61 6 76 30 104 16 19 45
68 65 109 36 74 37 77 37 195 0 102 -4 129 -23 177 -63 157 -201 264 -397 307
-62 14 -229 19 -315 10z m273 -178 c70 -35 107 -79 129 -156 17 -56 16 -139 0
-200 -34 -120 -170 -272 -314 -349 -49 -26 -51 -41 -11 -93 65 -84 171 -85
336 -2 31 16 57 27 57 24 0 -8 -41 -110 -66 -165 -43 -92 -130 -214 -212 -297
-124 -126 -238 -202 -369 -247 -92 -31 -141 -39 -239 -38 -189 1 -323 87 -388
248 -59 147 -55 398 10 592 36 107 140 306 174 332 4 3 11 13 17 23 18 33 147
158 208 202 115 82 252 140 360 152 28 3 51 7 53 8 2 2 46 2 98 0 83 -3 103
-7 157 -34z"/>
<path d="M7925 3567 c-293 -30 -536 -166 -624 -349 -31 -65 -51 -175 -44 -238
6 -54 32 -129 65 -190 31 -55 54 -91 176 -270 105 -154 142 -249 137 -359 -6
-123 -74 -212 -202 -262 -82 -32 -303 -36 -412 -8 -179 46 -308 147 -391 304
-17 33 -33 61 -35 63 -7 8 -85 -40 -95 -57 -13 -26 -13 -183 1 -252 6 -30 13
-65 15 -79 8 -41 62 -162 91 -206 107 -159 244 -258 421 -306 107 -28 318 -29
452 -1 315 67 547 253 637 511 29 82 37 135 37 242 1 95 -6 146 -27 206 -48
132 -135 249 -346 463 -227 231 -273 309 -241 414 17 60 99 136 180 169 221
88 481 40 638 -119 l62 -64 41 43 c49 52 67 85 74 134 6 48 -15 83 -75 122
-118 77 -321 111 -535 89z"/>
</g>
</svg>
